<svg width="325" height="295" viewBox="0 0 325 295" fill="none" xmlns="http://www.w3.org/2000/svg">
<path d="M196.881 117.303L174.5 291.5L220.114 173.274L250.74 91.9568L215.89 110.966L196.881 117.303Z" fill="#30986B"/>
<path d="M114.507 102.518L84.937 86.6765L170.479 284.162L114.507 102.518Z" fill="#1D3F30"/>
<path d="M102.89 97.2372L95.4977 77.1718L128.236 97.2372H102.89Z" fill="#276C4E"/>
<path d="M82.8248 82.4522L173.647 293.667M173.647 293.667L252.853 87.7325M173.647 293.667L196.881 117.303M173.647 293.667L115.563 104.63M91.2734 67.6672C91.2734 69.3569 99.0179 87.0285 102.89 96.1811" stroke="#44F1A6"/>
<path fill-rule="evenodd" clip-rule="evenodd" d="M208.524 66.6498C208.486 77.1007 192.886 85.5662 173.647 85.5662L173.577 85.5662H173.576C154.346 85.5453 138.77 77.0668 138.77 66.6111L138.77 66.5738L138.77 66.5723C138.808 56.1215 154.409 47.6559 173.647 47.6559L173.717 47.656H173.718C192.948 47.6769 208.525 56.1554 208.525 66.6111L208.524 66.6498ZM227.47 95.2772C224.09 104.847 212.283 112.789 196.409 116.732L196.282 117.753C232.072 112.372 258.35 94.5442 258.35 73.3808C258.35 58.795 245.868 45.7936 226.393 37.3594C251.691 39.999 270.806 52.0919 270.806 66.6111C270.806 41.1873 232.883 20.5772 186.103 20.5772C159.266 20.5772 135.343 27.3607 119.824 37.945C124.681 24.1957 146.932 13.8075 173.647 13.8075C126.867 13.8075 88.9446 34.4176 88.9446 59.8414C88.9446 74.4272 101.426 87.4286 120.901 95.8628C102.536 93.9467 87.4305 87.049 80.5296 77.8577L80.5 78L83.1919 84.5901C96.0768 101.08 126.149 112.645 161.191 112.645C188.029 112.645 211.951 105.861 227.47 95.2772Z" fill="#44F1A6"/>
<path d="M208.5 70C208.5 74.6828 204.745 79.0529 198.376 82.282C192.036 85.4969 183.241 87.5 173.5 87.5C163.759 87.5 154.964 85.4969 148.624 82.282C142.255 79.0529 138.5 74.6828 138.5 70C138.5 65.3172 142.255 60.9471 148.624 57.718C154.964 54.5031 163.759 52.5 173.5 52.5C183.241 52.5 192.036 54.5031 198.376 57.718C204.745 60.9471 208.5 65.3172 208.5 70Z" stroke="#44F1A6"/>
<path d="M204.5 75.5C204.5 79.7771 201.181 83.7706 195.542 86.7243C189.927 89.6657 182.134 91.5 173.5 91.5C164.866 91.5 157.073 89.6657 151.458 86.7243C145.819 83.7706 142.5 79.7771 142.5 75.5C142.5 71.2229 145.819 67.2294 151.458 64.2757C157.073 61.3343 164.866 59.5 173.5 59.5C182.134 59.5 189.927 61.3343 195.542 64.2757C201.181 67.2294 204.5 71.2229 204.5 75.5Z" stroke="#44F1A6"/>
<path fill-rule="evenodd" clip-rule="evenodd" d="M128.954 150.053L128.61 148.947C138.305 151.226 149.107 152.5 160.5 152.5C172.048 152.5 182.99 151.191 192.786 148.853L192.645 149.914C182.859 152.217 171.97 153.5 160.5 153.5C149.263 153.5 138.584 152.269 128.954 150.053ZM134.265 167.155L133.929 166.074C142.198 167.642 151.15 168.5 160.5 168.5C171.191 168.5 181.362 167.378 190.586 165.356L190.445 166.41C181.238 168.401 171.118 169.5 160.5 169.5C151.29 169.5 142.455 168.673 134.265 167.155ZM138.85 181.922L138.521 180.861C145.477 181.927 152.856 182.5 160.5 182.5C170.454 182.5 179.957 181.528 188.665 179.762L188.525 180.81C179.838 182.547 170.385 183.5 160.5 183.5C152.985 183.5 145.72 182.949 138.85 181.922ZM142.74 194.447L142.415 193.4C148.21 194.119 154.267 194.5 160.5 194.5C169.832 194.5 178.767 193.645 187.022 192.084L186.883 193.127C178.651 194.663 169.765 195.5 160.5 195.5C154.389 195.5 148.442 195.136 142.74 194.447ZM146.595 206.859L146.273 205.825C150.881 206.268 155.637 206.5 160.5 206.5C169.217 206.5 177.588 205.754 185.382 204.383L185.244 205.422C177.476 206.77 169.153 207.5 160.5 207.5C155.753 207.5 151.105 207.28 146.595 206.859ZM149.781 217.121L149.463 216.096C153.066 216.362 156.751 216.5 160.5 216.5C168.711 216.5 176.614 215.838 184.018 214.616L183.88 215.652C176.505 216.853 168.649 217.5 160.5 217.5C156.863 217.5 153.285 217.371 149.781 217.121ZM152.631 226.297L152.314 225.279C155.003 225.425 157.734 225.5 160.5 225.5C168.259 225.5 175.744 224.909 182.792 223.812L182.654 224.845C175.636 225.922 168.199 226.5 160.5 226.5C157.844 226.5 155.218 226.431 152.631 226.297ZM155.149 234.406L154.835 233.394C156.705 233.464 158.594 233.5 160.5 233.5C167.861 233.5 174.975 232.968 181.703 231.977L181.566 233.008C174.869 233.98 167.802 234.5 160.5 234.5C158.701 234.5 156.917 234.468 155.149 234.406ZM173.98 289.898C173.463 289.945 172.944 289.989 172.423 290.031L172.119 289.052C172.787 288.999 173.453 288.943 174.116 288.882L173.98 289.898ZM180.751 239.114C174.305 240.017 167.515 240.5 160.5 240.5C159.337 240.5 158.179 240.487 157.029 240.46L157.342 241.467C158.389 241.489 159.442 241.5 160.5 241.5C167.457 241.5 174.201 241.028 180.614 240.143L180.751 239.114ZM179.937 245.226C173.734 246.057 167.22 246.5 160.5 246.5C159.966 246.5 159.433 246.497 158.902 246.492L159.213 247.495C159.641 247.498 160.07 247.5 160.5 247.5C167.163 247.5 173.631 247.067 179.8 246.253L179.937 245.226ZM179.122 251.332C173.247 252.084 167.1 252.489 160.768 252.5L161.078 253.499C167.245 253.476 173.242 253.082 178.986 252.358L179.122 251.332ZM178.444 256.417C173.257 257.055 167.861 257.423 162.317 257.489L162.626 258.485C168.009 258.411 173.254 258.053 178.308 257.441L178.444 256.417ZM177.902 260.483C173.269 261.034 168.472 261.371 163.553 261.469L163.862 262.463C168.62 262.359 173.268 262.033 177.766 261.506L177.902 260.483ZM177.36 264.546C173.284 265.016 169.083 265.318 164.786 265.44L165.094 266.431C169.233 266.306 173.285 266.015 177.224 265.568L177.36 264.546ZM176.819 268.608C173.303 268.998 169.696 269.266 166.016 269.4L166.323 270.389C169.847 270.254 173.306 269.998 176.683 269.629L176.819 268.608ZM176.413 271.652C173.32 271.987 170.157 272.226 166.936 272.363L167.243 273.351C170.309 273.215 173.324 272.987 176.277 272.673L176.413 271.652ZM176.007 274.696C173.339 274.977 170.618 275.187 167.855 275.322L168.161 276.308C170.771 276.176 173.344 275.977 175.871 275.715L176.007 274.696ZM175.602 277.738C173.359 277.967 171.081 278.147 168.772 278.274L169.077 279.258C171.235 279.136 173.366 278.968 175.466 278.757L175.602 277.738ZM175.196 280.779C173.382 280.959 171.545 281.107 169.687 281.221L169.992 282.204C171.699 282.096 173.389 281.96 175.06 281.797L175.196 280.779ZM174.926 282.805C173.398 282.954 171.855 283.08 170.296 283.182L170.601 284.164C172.01 284.07 173.406 283.956 174.79 283.823L174.926 282.805ZM174.656 284.831C173.416 284.95 172.165 285.053 170.904 285.141L171.209 286.122C172.32 286.043 173.424 285.952 174.52 285.849L174.656 284.831ZM174.386 286.857C173.434 286.946 172.476 287.027 171.512 287.098L171.816 288.078C172.632 288.016 173.443 287.948 174.25 287.874L174.386 286.857ZM195.403 129.23C184.922 131.962 173.059 133.5 160.5 133.5C146.561 133.5 133.48 131.606 122.195 128.287L121.838 127.138C133.161 130.543 146.377 132.5 160.5 132.5C173.145 132.5 185.062 130.931 195.545 128.159L195.403 129.23Z" fill="url(#paint0_linear)"/>
<path d="M54.3051 141.062C63.3878 153.27 62.3456 169.23 52.2287 176.757C42.1117 184.283 26.526 180.695 17.4433 168.486C8.36061 156.278 9.40279 140.318 19.5197 132.792C29.6367 125.265 45.2224 128.854 54.3051 141.062Z" fill="#1D3F30" stroke="#44F1A6"/>
<path d="M55.5364 139.272C64.4535 151.258 63.5084 166.853 53.6916 174.156C43.8748 181.46 28.6659 177.883 19.7488 165.897C10.8316 153.911 11.7767 138.316 21.5935 131.012C31.4103 123.709 46.6192 127.286 55.5364 139.272Z" fill="#1D3F30" stroke="#44F1A6"/>
<path d="M52.2593 142.02C59.4553 151.692 58.6764 164.25 50.7858 170.121C42.8951 175.991 30.643 173.128 23.4469 163.455C16.2509 153.783 17.0298 141.225 24.9204 135.354C32.811 129.484 45.0632 132.347 52.2593 142.02Z" fill="#182922" stroke="#44F1A6"/>
<path fill-rule="evenodd" clip-rule="evenodd" d="M40.5546 154.984L30.35 141.268L33.8073 155.087L40.5546 154.984ZM40.5549 154.984L30.3502 141.268L42.5924 148.551L40.5549 154.984ZM35.3769 157.198L42.1242 157.095L44.1618 150.662L45.2641 161.316L35.3769 157.198Z" fill="#44F1A6"/>
<path d="M248.068 256.008C236.105 244.221 237.94 222.735 252.457 208.001C266.973 193.268 288.43 191.114 300.393 202.901C312.357 214.689 310.522 236.175 296.005 250.909C281.489 265.642 260.032 267.796 248.068 256.008Z" fill="#1D3F30" stroke="#44F1A6"/>
<path d="M250.275 257.692C244.847 252.345 242.824 244.512 244.002 236.121C245.179 227.729 249.557 218.813 256.878 211.383C264.199 203.953 273.048 199.443 281.422 198.141C289.795 196.839 297.657 198.746 303.084 204.093C308.512 209.441 310.535 217.273 309.357 225.665C308.18 234.057 303.802 242.973 296.481 250.403C289.161 257.833 280.311 262.343 271.937 263.645C263.564 264.947 255.702 263.04 250.275 257.692Z" fill="#1D3F30" stroke="#44F1A6"/>
<path d="M256.751 254.053C252.394 249.76 250.769 243.462 251.725 236.698C252.681 229.934 256.217 222.74 262.13 216.739C268.042 210.738 275.183 207.095 281.932 206.039C288.681 204.983 295.003 206.514 299.359 210.807C303.716 215.1 305.342 221.398 304.386 228.162C303.43 234.926 299.893 242.12 293.981 248.121C288.068 254.122 280.927 257.765 274.178 258.821C267.429 259.877 261.108 258.346 256.751 254.053Z" fill="#182922" stroke="#44F1A6"/>
<path fill-rule="evenodd" clip-rule="evenodd" d="M274.104 236.347L289.989 218.982L271.63 226.818L274.104 236.347ZM274.104 236.347L289.989 218.983L283.909 237.861L274.104 236.347ZM269.185 229.49L271.659 239.018L281.464 240.532L266.771 244.361L269.185 229.49Z" fill="#44F1A6"/>
<path d="M70.704 30.6999C67.4844 39.988 57.6601 44.9799 48.7867 41.9041C39.9133 38.8282 35.2861 28.827 38.5057 19.5388C41.7253 10.2507 51.5496 5.25881 60.423 8.33465C69.2964 11.4105 73.9236 21.4117 70.704 30.6999Z" fill="#1D3F30" stroke="#44F1A6"/>
<path d="M70.9535 28.759C67.7928 37.8771 58.2264 42.7943 49.6185 39.8105C41.0106 36.8267 36.5398 27.0437 39.7004 17.9256C42.8611 8.80745 52.4275 3.89026 61.0354 6.87406C69.6433 9.85785 74.1141 19.6408 70.9535 28.759Z" fill="#1D3F30" stroke="#44F1A6"/>
<path d="M67.8859 27.8678C65.3435 35.2024 57.6523 39.15 50.7394 36.7537C43.8264 34.3575 40.2285 26.4966 42.7709 19.1621C45.3133 11.8275 53.0045 7.87993 59.9174 10.2762C66.8303 12.6725 70.4283 20.5333 67.8859 27.8678Z" fill="#182922" stroke="#44F1A6"/>
<path fill-rule="evenodd" clip-rule="evenodd" d="M54.1795 25.8298L57.8451 15.2549L51.1602 22.0497L54.1795 25.8298ZM54.1795 25.8299L57.8451 15.255L58.8906 24.7294L54.1795 25.8299ZM50.5957 23.6765L53.615 27.4567L58.3261 26.3561L52.4871 30.7105L50.5957 23.6765Z" fill="#44F1A6"/>
<path d="M272.571 103.099C266.57 111.165 267.285 121.664 273.917 126.598C280.549 131.532 290.811 129.199 296.811 121.133C302.812 113.067 302.097 102.568 295.465 97.6342C288.833 92.7004 278.572 95.033 272.571 103.099Z" fill="#1D3F30" stroke="#44F1A6"/>
<path d="M271.752 101.908C265.86 109.828 266.513 120.084 272.944 124.869C279.375 129.653 289.387 127.331 295.278 119.411C301.17 111.492 300.517 101.236 294.086 96.4511C287.655 91.6666 277.644 93.9892 271.752 101.908Z" fill="#1D3F30" stroke="#44F1A6"/>
<path d="M273.931 103.736C269.184 110.117 269.726 118.354 274.876 122.186C280.027 126.017 288.072 124.169 292.82 117.788C297.567 111.407 297.025 103.17 291.874 99.3381C286.724 95.5064 278.678 97.3544 273.931 103.736Z" fill="#182922" stroke="#44F1A6"/>
<path fill-rule="evenodd" clip-rule="evenodd" d="M288.364 103.136L288.364 103.136L280.224 107.978L281.579 112.256L281.579 112.256L286.065 112.324L288.364 103.136L288.364 103.136ZM285.022 113.727L280.535 113.659L279.181 109.382L278.448 116.465L285.022 113.727Z" fill="#44F1A6"/>
<path d="M87.2326 194.398C74.2334 187.926 62.0981 180.675 55 174.5M109.41 203.584C131.14 210.86 157.091 214.677 185 209.844" stroke="#44F1A6"/>
<path d="M273 126C269.75 129.114 262.748 134.747 254.381 140.506M227 156C233.31 153.439 240.188 149.649 246.714 145.553" stroke="#44F1A6"/>
<path d="M48.9877 42.1024C47.233 54.2916 48.3769 73.5377 60.7113 91.2018M121.82 127.582C96.0265 121.601 78.896 111.375 67.7191 99.7264" stroke="#44F1A6"/>
<path d="M246 253C236.821 258.64 224.289 263.818 210.5 267.021M196.5 269.495C199.021 269.191 201.525 268.812 204 268.364" stroke="#44F1A6"/>
<path d="M303 203.5C305.548 201.316 307.832 198.982 309.862 196.5M324 157C323 172.5 320.151 180.803 313.8 191" stroke="#44F1A6"/>
<defs>
<linearGradient id="paint0_linear" x1="158.692" y1="127.138" x2="158.692" y2="290.031" gradientUnits="userSpaceOnUse">
<stop stop-color="#44F1A6"/>
<stop offset="0.458333" stop-color="#44F1A6" stop-opacity="0"/>
</linearGradient>
</defs>
</svg>
