<svg width="30" height="30" viewBox="0 0 30 30" fill="none" xmlns="http://www.w3.org/2000/svg">
<path fill-rule="evenodd" clip-rule="evenodd" d="M15 30C23.2843 30 30 23.2843 30 15C30 6.71573 23.2843 0 15 0C6.71573 0 0 6.71573 0 15C0 23.2843 6.71573 30 15 30ZM15 29C22.732 29 29 22.732 29 15C29 7.26801 22.732 1 15 1C7.26801 1 1 7.26801 1 15C1 22.732 7.26801 29 15 29Z" fill="#44F1A6"/>
<path fill-rule="evenodd" clip-rule="evenodd" d="M13 8C13 6.89543 13.8954 6 15 6C16.1046 6 17 6.89543 17 8H18C19.1046 8 20 8.89543 20 10C20 11.1046 19.1046 12 18 12H14V13H18C19.1046 13 20 13.8954 20 15V20C20 21.1046 19.1046 22 18 22H17C17 23.1046 16.1046 24 15 24C13.8954 24 13 23.1046 13 22H12C10.8954 22 10 21.1046 10 20C10 18.8954 10.8954 18 12 18H16V17H12C10.8954 17 10 16.1046 10 15V10C10 8.89543 10.8954 8 12 8H13ZM17 19H12C11.4477 19 11 19.4477 11 20C11 20.5523 11.4477 21 12 21H14V22C14 22.5523 14.4477 23 15 23C15.5523 23 16 22.5523 16 22V21H18C18.5523 21 19 20.5523 19 20V15C19 14.4477 18.5523 14 18 14H13V11H18C18.5523 11 19 10.5523 19 10C19 9.44772 18.5523 9 18 9H16V8C16 7.44772 15.5523 7 15 7C14.4477 7 14 7.44772 14 8V9H12C11.4477 9 11 9.44772 11 10V15C11 15.5523 11.4477 16 12 16H17V19Z" fill="#44F1A6"/>
</svg>
